<?xml version="1.0" encoding="utf-8"?>
<!-- Generator: Adobe Illustrator 21.1.0, SVG Export Plug-In . SVG Version: 6.00 Build 0)  -->
<svg version="1.1" id="QP" xmlns="http://www.w3.org/2000/svg" xmlns:xlink="http://www.w3.org/1999/xlink" x="0px" y="0px"
	 viewBox="0 0 27.2 37.2" style="enable-background:new 0 0 27.2 37.2;" xml:space="preserve">
<style type="text/css">
	.st0{fill:#48234E;}
	.st1{fill:#FFFFFF;}
</style>
<title>QL8</title>
<g>
	<path class="st0" d="M13.6,1.1L13.6,1.1c-7,0-12.7,5.6-12.7,12.6c0,8.6,11.7,21.8,11.7,21.8c0.4,0.6,1.1,0.7,1.7,0.3
		c0.1-0.1,0.3-0.2,0.3-0.3c0,0,11.6-13.2,11.6-21.8C26.2,6.8,20.6,1.1,13.6,1.1z M13.5,18.6c-2.6,0-4.8-2.1-4.8-4.8S10.8,9,13.5,9
		c2.7,0,4.8,2.1,4.8,4.8S16.1,18.6,13.5,18.6z"/>
	<path class="st1" d="M13.7,37.1c-0.2,0-0.3,0-0.5,0c-0.6-0.1-1-0.4-1.4-0.9C10.9,35.2,0,22.5,0,13.7C0,6.2,6.1,0.1,13.6,0.1v2
		C7.2,2.1,2,7.3,2,13.7c0,8.1,11.3,21,11.4,21.1l0.1,0.1c0.1,0.1,0.2,0.1,0.3,0.1l0.2-0.2c0.1-0.1,11.3-13,11.3-21.1
		c0-6.4-5.2-11.7-11.7-11.7v-2c7.5,0,13.7,6.1,13.7,13.7c0,8.7-10.9,21.4-11.8,22.4c-0.2,0.2-0.4,0.4-0.6,0.6
		C14.5,37,14.1,37.1,13.7,37.1z"/>
</g>
</svg>
